<?xml version="1.0" encoding="utf-8"?>
<!-- Generator: Adobe Illustrator 22.0.1, SVG Export Plug-In . SVG Version: 6.00 Build 0)  -->
<svg version="1.1" id="圖層_1" xmlns="http://www.w3.org/2000/svg" xmlns:xlink="http://www.w3.org/1999/xlink" x="0px" y="0px"
	 viewBox="0 0 533.3 184" style="enable-background:new 0 0 533.3 184;" xml:space="preserve">
<style type="text/css">
	.st0{fill:#FFFFFF;}
</style>
<title>logo</title>
<g>
	<polygon class="st0" points="204.8,28.9 213.8,28 176.1,92 159.4,92 	"/>
	<polygon class="st0" points="148.1,0 114.3,28.9 33.7,38.7 0,96 7.5,96 16.6,96 173.6,96 179.4,86.1 22.4,86.1 44.7,48.4 
		125.3,38.7 158.7,10.3 240.9,10.3 196.1,86.1 196,86.1 190.2,96 190.3,96 207,96 207,96 207.3,95.5 263.5,0 	"/>
	<polygon class="st0" points="336,96 487.6,77.6 494.2,66.5 250.4,96 	"/>
	<polygon class="st0" points="242.6,65.9 513.8,33.1 520.4,21.9 249.1,54.7 	"/>
	<polygon class="st0" points="229.4,88.2 500.7,55.3 507.3,44.2 236,77 	"/>
	<polygon class="st0" points="255.7,43.6 527,10.8 533.3,0 530.6,0 262.2,32.5 	"/>
	<polygon class="st0" points="421.5,96 476.8,96 481,88.8 	"/>
	<polygon class="st0" points="268.8,21.3 445,0 360.2,0 275.3,10.3 	"/>
	<path class="st0" d="M0.5,111.2h41.4c6.9,0,12.2,1.7,15.9,5.1c3.6,3.2,5.6,7.9,5.5,12.7c0.1,4-1.4,7.9-4,10.9
		c-2.1,2.2-4.8,3.9-7.7,4.8c5.1,1.2,8.9,3.4,11.3,6.4c2.5,3.2,3.8,7.3,3.6,11.3c0,3.5-0.8,7-2.6,10c-1.7,2.9-4.1,5.3-7.1,7
		c-2.6,1.3-5.5,2.1-8.4,2.3c-3.3,0.5-6.6,0.8-9.9,1H0.5V111.2z M22.8,139.3h9.6c3.5,0,5.8-0.6,7.2-1.8c1.4-1.3,2.1-3.2,2-5.2
		c0.1-1.8-0.6-3.6-2-4.9c-1.3-1.2-3.7-1.8-7.1-1.8h-9.8V139.3z M22.8,167.4h11.3c3.8,0,6.5-0.7,8-2c1.6-1.4,2.4-3.4,2.3-5.5
		c0.1-2-0.8-3.9-2.3-5.1c-1.5-1.3-4.3-1.9-8.1-1.9H22.8V167.4z"/>
	<path class="st0" d="M95.1,147.8l-19-2c0.5-2.8,1.6-5.5,3.1-7.8c1.5-2.1,3.5-3.8,5.8-5c2.4-1.2,4.9-2,7.5-2.3
		c3.4-0.6,6.9-0.9,10.3-0.8c4.8-0.1,9.6,0.2,14.3,1c3.3,0.5,6.4,2,9,4.2c1.8,1.7,3.2,3.8,4,6.2c0.9,2.5,1.4,5.1,1.5,7.7v22.9
		c0,1.9,0.1,3.8,0.5,5.7c0.5,1.8,1.1,3.6,2,5.3h-18.6c-0.6-1-1.1-2-1.5-3c-0.3-1.1-0.5-2.2-0.7-3.3c-2.2,2.3-4.9,4.1-7.8,5.4
		c-3.9,1.5-8.1,2.2-12.3,2.2c-6.2,0-10.9-1.4-14.1-4.3c-3.1-2.6-4.9-6.5-4.8-10.6c-0.1-3.6,1.1-7,3.5-9.7c2.3-2.5,6.6-4.4,12.8-5.7
		c7.5-1.5,12.3-2.5,14.5-3.2c2.4-0.7,4.7-1.5,7-2.4c0-2.4-0.5-4.1-1.5-5.1c-1-1-2.8-1.5-5.3-1.5c-3.3,0-5.7,0.5-7.3,1.6
		C96.6,144.3,95.5,145.9,95.1,147.8z M112.3,158.2c-2.7,1-5.6,1.8-8.5,2.6c-4,1.1-6.6,2.1-7.7,3.2c-2.1,1.9-2.2,5.1-0.3,7.2
		c0.1,0.1,0.2,0.2,0.3,0.3c1.4,1.1,3.1,1.6,4.8,1.5c2.2,0,4.3-0.5,6.2-1.6c1.7-0.9,3.1-2.3,4-3.9c0.9-1.9,1.3-3.9,1.2-6L112.3,158.2
		z"/>
	<path class="st0" d="M145.1,111.2h41.4c6.9,0,12.2,1.7,15.9,5.1c3.6,3.2,5.6,7.9,5.5,12.7c0.1,4-1.4,7.9-4,10.9
		c-2.1,2.2-4.8,3.9-7.7,4.8c5.1,1.2,8.9,3.4,11.3,6.4c2.5,3.2,3.8,7.3,3.6,11.3c0.1,3.5-0.8,7-2.6,10c-1.7,2.9-4.1,5.3-7.1,7
		c-2.6,1.3-5.5,2.1-8.4,2.3c-3.3,0.5-6.6,0.8-9.9,1h-38.1V111.2z M167.4,139.3h9.6c3.5,0,5.8-0.6,7.2-1.8c1.4-1.3,2.1-3.2,2-5.2
		c0.1-1.8-0.6-3.6-2-4.9c-1.3-1.2-3.7-1.8-7-1.8h-9.8V139.3z M167.4,167.4h11.3c3.8,0,6.5-0.7,8.1-2c1.6-1.4,2.4-3.4,2.3-5.5
		c0.1-2-0.8-3.9-2.3-5.1c-1.5-1.3-4.3-1.9-8.1-1.9h-11.3L167.4,167.4z"/>
	<path class="st0" d="M239.5,147.8l-19-2c0.5-2.8,1.6-5.5,3.1-7.8c1.5-2.1,3.5-3.8,5.8-5c2.4-1.2,4.9-2,7.5-2.3
		c3.4-0.6,6.9-0.9,10.3-0.8c4.8-0.1,9.6,0.2,14.4,1c3.3,0.5,6.4,2,9,4.2c1.8,1.7,3.2,3.8,4,6.2c0.9,2.5,1.4,5.1,1.5,7.7v22.9
		c0,1.9,0.1,3.8,0.5,5.7c0.5,1.8,1.1,3.6,2,5.3h-18.6c-0.6-1-1.1-2-1.5-3c-0.3-1.1-0.5-2.2-0.7-3.3c-2.2,2.2-4.9,4.1-7.8,5.4
		c-3.9,1.5-8.1,2.2-12.3,2.2c-6.2,0-10.9-1.4-14.1-4.3c-3.1-2.6-4.9-6.5-4.8-10.6c-0.1-3.6,1.1-7,3.5-9.7c2.3-2.5,6.6-4.4,12.8-5.7
		c7.5-1.5,12.3-2.5,14.5-3.2c2.4-0.7,4.7-1.4,7-2.4c0-2.4-0.5-4.1-1.5-5.1c-1-1-2.8-1.5-5.3-1.5c-3.3,0-5.7,0.5-7.3,1.6
		C241.1,144.3,240,145.9,239.5,147.8z M256.8,158.2c-2.7,1-5.6,1.8-8.5,2.6c-4,1.1-6.6,2.1-7.7,3.2c-2.1,1.9-2.2,5.1-0.3,7.2
		c0.1,0.1,0.2,0.2,0.3,0.3c1.4,1.1,3.1,1.6,4.8,1.5c2.2,0,4.3-0.5,6.2-1.6c1.7-0.9,3.1-2.3,4.1-3.9c0.9-1.9,1.3-3.9,1.2-6
		L256.8,158.2z"/>
	<path class="st0" d="M337.1,153.5l19.4,5.9c-1.1,4.9-3.2,9.6-6.2,13.6c-2.7,3.6-6.3,6.4-10.4,8.3c-4.2,1.9-9.4,2.8-15.8,2.8
		c-7.8,0-14.1-1.1-19.1-3.4s-9.2-6.2-12.8-11.9c-3.6-5.7-5.4-13-5.4-21.9c0-11.8,3.1-20.9,9.5-27.3s15.2-9.5,26.8-9.5
		c9,0,16.1,1.8,21.3,5.5s9,9.2,11.5,16.8l-19.6,4.4c-0.5-1.7-1.2-3.3-2.2-4.8c-1.2-1.6-2.7-3-4.5-3.9c-6.2-2.9-13.6-1-17.5,4.7
		c-2,3-3,7.7-3,14.1c0,7.9,1.2,13.4,3.6,16.3c2.4,2.9,5.8,4.4,10.2,4.4c4.2,0,7.4-1.2,9.6-3.6C334.6,161.5,336.1,158.1,337.1,153.5z
		"/>
	<path class="st0" d="M384.1,147.8l-19-2c0.5-2.8,1.6-5.5,3.1-7.8c1.5-2.1,3.5-3.8,5.8-5c2.4-1.2,4.9-2,7.5-2.3
		c3.4-0.6,6.9-0.9,10.3-0.8c4.8-0.1,9.6,0.2,14.4,1c3.3,0.5,6.4,2,9,4.2c1.8,1.7,3.2,3.8,4,6.2c0.9,2.5,1.4,5.1,1.5,7.7v22.9
		c0,1.9,0.1,3.8,0.5,5.7c0.5,1.8,1.1,3.6,2,5.3h-18.7c-0.6-1-1.1-2-1.5-3c-0.3-1.1-0.5-2.2-0.7-3.3c-2.2,2.3-4.9,4.1-7.8,5.4
		c-3.9,1.5-8.1,2.2-12.3,2.2c-6.2,0-10.9-1.4-14.1-4.3c-3.1-2.6-4.9-6.5-4.8-10.6c-0.1-3.6,1.1-7,3.5-9.7c2.3-2.5,6.6-4.4,12.8-5.7
		c7.5-1.5,12.3-2.5,14.5-3.2c2.4-0.7,4.7-1.5,7-2.4c0-2.4-0.5-4.1-1.5-5.1c-1-1-2.8-1.5-5.3-1.5c-3.3,0-5.7,0.5-7.3,1.6
		C385.6,144.3,384.5,146,384.1,147.8z M401.3,158.2c-2.7,1-5.6,1.8-8.6,2.6c-4,1.1-6.6,2.1-7.7,3.2c-2.1,1.9-2.2,5.1-0.3,7.2
		c0.1,0.1,0.2,0.2,0.3,0.3c1.4,1.1,3.1,1.6,4.8,1.5c2.2,0,4.3-0.5,6.2-1.6c1.7-0.9,3.1-2.3,4-3.9c0.9-1.9,1.3-3.9,1.2-6L401.3,158.2
		z"/>
	<path class="st0" d="M432.8,131h18.6v8.5c1.8-3.7,3.6-6.2,5.5-7.6c2.1-1.4,4.5-2.2,7.1-2.1c3.4,0.1,6.7,1.1,9.6,2.7l-6.2,14.2
		c-1.7-0.8-3.6-1.3-5.6-1.5c-2.4-0.1-4.7,1.2-6,3.2c-2.1,3-3.1,8.7-3.1,17v17.4h-20L432.8,131z"/>
	<path class="st0" d="M476,168.4l19.7-1.9c0.6,2,1.8,3.7,3.4,5c1.8,1.1,3.8,1.6,5.9,1.5c2.2,0.1,4.4-0.5,6.2-1.7
		c1.1-0.7,1.7-1.9,1.7-3.2c0-1.5-0.9-2.8-2.3-3.3c-1.1-0.6-3.9-1.2-8.5-2c-6.9-1.2-11.7-2.3-14.4-3.3c-2.7-1-5.1-2.9-6.8-5.2
		c-1.8-2.4-2.8-5.3-2.8-8.3c-0.1-3.2,1-6.3,3-8.8c2.2-2.6,5-4.5,8.2-5.5c3.5-1.2,8.2-1.8,14-1.8c6.2,0,10.8,0.5,13.7,1.4
		c2.8,0.8,5.3,2.4,7.4,4.4c2.2,2.3,3.8,5,4.9,8l-18.8,1.9c-0.4-1.5-1.2-2.8-2.4-3.7c-1.7-1.1-3.7-1.6-5.7-1.6
		c-1.7-0.1-3.4,0.3-4.9,1.2c-1,0.7-1.5,1.7-1.5,2.9c0,1.3,0.8,2.4,2,2.9c1.3,0.7,4.2,1.3,8.5,1.8c6.6,0.8,11.5,1.8,14.8,3.1
		c3,1.1,5.5,3.1,7.4,5.7c1.7,2.4,2.6,5.2,2.6,8.2c0,3.1-1,6.1-2.7,8.7c-2.1,3.1-5.1,5.4-8.6,6.8c-3.9,1.7-9.2,2.5-15.9,2.5
		c-9.5,0-16.2-1.4-20.2-4.1C479.7,177.2,476.9,173.1,476,168.4z"/>
</g>
</svg>
