<svg xmlns="http://www.w3.org/2000/svg" viewBox="0 0 218.34 36"><defs><style>.cls-1{fill:#00b2e3;}.cls-2{fill:#002a3a;}</style></defs><title>logo</title><g id="圖層_2" data-name="圖層 2"><g id="type"><path class="cls-1" d="M31.3,12.78A7.81,7.81,0,1,0,18.15,11a2.49,2.49,0,0,1-.23,2.68,2.59,2.59,0,0,1-2.93.61,11.2,11.2,0,1,0,5.87,4.87,2.61,2.61,0,0,1,.06-3,2.5,2.5,0,0,1,2.6-.72A7.8,7.8,0,0,0,31.3,12.78ZM8.79,22.8a2.35,2.35,0,1,1-.31-3.32A2.36,2.36,0,0,1,8.79,22.8ZM23.61,6.41A1.64,1.64,0,1,1,23.4,4.1,1.64,1.64,0,0,1,23.61,6.41Z"/><path class="cls-1" d="M35,25.37a5.38,5.38,0,1,0,.87,7.56A5.38,5.38,0,0,0,35,25.37ZM30.5,28.54A1.13,1.13,0,1,1,30.45,27,1.12,1.12,0,0,1,30.5,28.54Z"/><path class="cls-2" d="M218.34,7.67a3.23,3.23,0,0,1-.46,1.69,3.16,3.16,0,0,1-1.23,1.23,3.34,3.34,0,0,1-3.35,0,3.26,3.26,0,0,1-1.24-1.23,3.3,3.3,0,0,1-.45-1.67A3.37,3.37,0,0,1,212.06,6a3.33,3.33,0,0,1,1.23-1.24,3.43,3.43,0,0,1,3.36,0A3.26,3.26,0,0,1,217.88,6,3.31,3.31,0,0,1,218.34,7.67Zm-.47,0a2.9,2.9,0,0,0-.39-1.45,2.84,2.84,0,0,0-1.06-1.06A2.69,2.69,0,0,0,215,4.77a2.75,2.75,0,0,0-1.45.39,2.79,2.79,0,0,0-1.07,1.06,2.9,2.9,0,0,0-.39,1.46,2.84,2.84,0,0,0,.39,1.45,2.79,2.79,0,0,0,1.07,1.06,2.87,2.87,0,0,0,1.45.39,2.83,2.83,0,0,0,1.44-.39,2.91,2.91,0,0,0,1.06-1.06A2.88,2.88,0,0,0,217.87,7.67Zm-4.3-2h1.62a2,2,0,0,1,.81.12.84.84,0,0,1,.41.36,1.1,1.1,0,0,1,.16.6,1.13,1.13,0,0,1-.11.51,1.09,1.09,0,0,1-.38.35.74.74,0,0,1,.36.3,1.45,1.45,0,0,1,.09.57V9a.88.88,0,0,0,.13.51l.07.11H216A2.84,2.84,0,0,1,216,9l0-.47a.85.85,0,0,0-.09-.37.43.43,0,0,0-.19-.16,1.73,1.73,0,0,0-.49,0h-1V9.58h-.61Zm.61.56V7.41h1a1.17,1.17,0,0,0,.59-.1.52.52,0,0,0,.23-.48.54.54,0,0,0-.17-.43,1,1,0,0,0-.61-.13Z"/><path class="cls-2" d="M57.65,1.85a13.75,13.75,0,0,1,5.27.91,9.87,9.87,0,0,1,3.53,2.37,9.19,9.19,0,0,1,2,3.38,12.67,12.67,0,0,1,0,7.83,9.07,9.07,0,0,1-2,3.39,9.76,9.76,0,0,1-3.53,2.38,13.75,13.75,0,0,1-5.27.9H50V34.84H42.78v-33Zm-2,15.53a15.56,15.56,0,0,0,2.4-.19,5.39,5.39,0,0,0,2-.72A3.78,3.78,0,0,0,61.51,15,5.3,5.3,0,0,0,62,12.43a5.35,5.35,0,0,0-.53-2.54,3.85,3.85,0,0,0-1.41-1.5,5.55,5.55,0,0,0-2-.71,14.4,14.4,0,0,0-2.4-.19H50v9.89Z"/><path class="cls-2" d="M88,34.84V31.51h-.14a7.37,7.37,0,0,1-3.24,3,9.58,9.58,0,0,1-4.06.92,11.49,11.49,0,0,1-4.32-.69,6.26,6.26,0,0,1-2.66-2,7.67,7.67,0,0,1-1.36-3.09,19.37,19.37,0,0,1-.39-4V11h6.56V24.45a8.45,8.45,0,0,0,.92,4.41,3.58,3.58,0,0,0,3.28,1.45,4.54,4.54,0,0,0,3.88-1.59c.81-1.06,1.2-2.81,1.2-5.24V11h6.56V34.84Z"/><path class="cls-2" d="M103.3,11v4.43h.09a8.11,8.11,0,0,1,1.25-2.06,7.88,7.88,0,0,1,1.8-1.61,8.84,8.84,0,0,1,2.17-1,7.72,7.72,0,0,1,2.4-.37,4.88,4.88,0,0,1,1.43.23v6.1c-.31-.06-.67-.12-1.11-.17s-.84-.06-1.24-.06a7,7,0,0,0-3,.6,5.33,5.33,0,0,0-2,1.64,6.61,6.61,0,0,0-1.09,2.42,13.6,13.6,0,0,0-.32,3V34.84H97.06V11Z"/><path class="cls-2" d="M114.46,7.26V1.85H121V7.26ZM121,11V34.84h-6.56V11Z"/><path class="cls-2" d="M135.25,15.25a4.61,4.61,0,0,0-2.64.72,5.79,5.79,0,0,0-1.73,1.85,7.93,7.93,0,0,0-.94,2.49,13.17,13.17,0,0,0-.28,2.7,12.68,12.68,0,0,0,.28,2.64,7.87,7.87,0,0,0,.9,2.42,5,5,0,0,0,1.68,1.78,4.65,4.65,0,0,0,2.59.69,4.85,4.85,0,0,0,3.63-1.31,6.32,6.32,0,0,0,1.59-3.54h6.33A10.83,10.83,0,0,1,143,33a11.92,11.92,0,0,1-7.8,2.49,13.06,13.06,0,0,1-4.92-.9A10.88,10.88,0,0,1,126.42,32,11.45,11.45,0,0,1,124,28.16a13.25,13.25,0,0,1-.88-4.92,15.93,15.93,0,0,1,.81-5.15A11.51,11.51,0,0,1,126.29,14a10.9,10.9,0,0,1,3.83-2.7,13,13,0,0,1,5.17-1,15.35,15.35,0,0,1,4.09.55,10.78,10.78,0,0,1,3.51,1.69,8.75,8.75,0,0,1,2.52,2.82,8.87,8.87,0,0,1,1.11,4H140.1C139.67,16.63,138.05,15.25,135.25,15.25Z"/><path class="cls-2" d="M149.39,17.72a10.9,10.9,0,0,1,6.37-6.51,13.64,13.64,0,0,1,5.08-.9,13.88,13.88,0,0,1,5.11.9,11.22,11.22,0,0,1,3.9,2.54,11.33,11.33,0,0,1,2.5,4,14.81,14.81,0,0,1,.87,5.2,14.62,14.62,0,0,1-.87,5.18,11.34,11.34,0,0,1-2.5,3.95,10.87,10.87,0,0,1-3.9,2.51,14.09,14.09,0,0,1-5.11.88,13.85,13.85,0,0,1-5.08-.88,10.88,10.88,0,0,1-3.88-2.51,11.17,11.17,0,0,1-2.49-3.95,14.4,14.4,0,0,1-.88-5.18A14.59,14.59,0,0,1,149.39,17.72Zm6,8a7.62,7.62,0,0,0,.95,2.44,5,5,0,0,0,1.78,1.74,5.43,5.43,0,0,0,2.77.64,5.6,5.6,0,0,0,2.8-.64,5,5,0,0,0,1.8-1.74,7.4,7.4,0,0,0,.95-2.44,14.37,14.37,0,0,0,.28-2.8,14.82,14.82,0,0,0-.28-2.82,7.28,7.28,0,0,0-.95-2.45,5.42,5.42,0,0,0-1.8-1.73,5.5,5.5,0,0,0-2.8-.67,5.33,5.33,0,0,0-2.77.67,5.46,5.46,0,0,0-1.78,1.73,7.5,7.5,0,0,0-.95,2.45,14.81,14.81,0,0,0-.27,2.82A14.37,14.37,0,0,0,155.34,25.72Z"/><path class="cls-2" d="M181.86,11v3.23H182a9.52,9.52,0,0,1,3.12-2.86,8.44,8.44,0,0,1,4.19-1,9.56,9.56,0,0,1,4.13.88,5.77,5.77,0,0,1,2.84,3.09,10.1,10.1,0,0,1,2.89-2.77,7.65,7.65,0,0,1,4.32-1.2,12.68,12.68,0,0,1,3.51.46,7,7,0,0,1,2.77,1.48,6.74,6.74,0,0,1,1.8,2.66,10.73,10.73,0,0,1,.65,3.94v16h-6.56V21.3c0-.8,0-1.55-.09-2.26a4.94,4.94,0,0,0-.51-1.85A3.1,3.1,0,0,0,203.79,16a4.46,4.46,0,0,0-2.2-.47,4.22,4.22,0,0,0-2.24.53A3.88,3.88,0,0,0,198,17.4a5.7,5.7,0,0,0-.65,1.94,14.57,14.57,0,0,0-.16,2.19V34.84h-6.56V21.44c0-.7,0-1.41,0-2.1a6,6,0,0,0-.39-1.92A3,3,0,0,0,189.05,16a4.42,4.42,0,0,0-2.38-.53,4.91,4.91,0,0,0-1.23.21,4.16,4.16,0,0,0-1.48.78,4.79,4.79,0,0,0-1.22,1.67,6.71,6.71,0,0,0-.51,2.84V34.84h-6.56V11Z"/></g></g></svg>